<svg xmlns="http://www.w3.org/2000/svg" viewBox="0 0 240 240" aria-hidden="true">
  <defs>
    <linearGradient id="tg" x1="120" x2="120" y1="0" y2="240" gradientUnits="userSpaceOnUse">
      <stop offset="0" stop-color="#2AABEE"/>
      <stop offset="1" stop-color="#229ED9"/>
    </linearGradient>
  </defs>
  <circle cx="120" cy="120" r="120" fill="url(#tg)"/>
  <path fill="#fff" d="M54.2 118.4c35.4-15.4 59-25.6 70.8-30.5 33.7-14 40.7-16.4 45.3-16.5 1-.0 3.3.2 4.8 1.4 1.2 1 1.6 2.3 1.7 3.3.2 1 .4 3.3.2 5.1-1.8 19.2-9.7 65.8-13.7 87.3-1.7 9.1-5.1 12.1-8.3 12.4-7.1.7-12.4-4.7-19.3-9.2-10.7-7-18.8-11.4-30.5-18.2-13.5-7.9-4.7-12.2 2.9-19.3 2-1.9 36.5-33.5 37.2-36.3.1-.4.1-1.7-.6-2.4-.8-.7-1.9-.5-2.7-.3-1.1.3-19.1 12.1-53.9 35.6-5.1 3.5-9.7 5.2-13.9 5.1-4.6-.1-13.4-2.6-19.9-4.7-8.1-2.6-14.5-4-13.9-8.4.3-2.3 3.4-4.6 9.5-7z"/>
</svg>
